<?xml version="1.0" encoding="UTF-8"?>
<svg id="Layer_2" data-name="Layer 2" xmlns="http://www.w3.org/2000/svg" viewBox="0 0 1323.59 365.25">
  <defs>
    <style>
      .cls-1 {
        fill: #004aad;
        stroke-width: 0px;
      }
    </style>
  </defs>
  <g id="Layer_1-2" data-name="Layer 1">
    <path class="cls-1" d="M0,131.36l.03-2.12C.65,89.45,14.81,55.97,40.99,32.43,64.26,11.52,95.33,0,128.5,0c59.77,0,125.4,39.77,128.27,127.08v4.31s-44.17,44.17-44.17,44.17l-14.14-14.14,38.19-38.19c-1.82-31.73-14.01-58.26-35.34-76.84-19.46-16.95-45.35-26.28-72.91-26.28s-53.49,9.34-72.96,26.3c-21.33,18.59-33.51,45.12-35.29,76.82l108.25,108.25,41.78-41.78,14.14,14.14-55.92,55.92L0,131.36Z"/>
    <path class="cls-1" d="M128.42,365.25c-33.12,0-64.14-11.49-87.35-32.35C14.93,309.4.74,275.91.04,236.04l-.04-2.12,44.21-44.21,14.14,14.14-38.19,38.19c1.82,31.73,14.01,58.26,35.34,76.84,19.46,16.95,45.35,26.28,72.91,26.28s53.49-9.34,72.96-26.3c21.33-18.59,33.51-45.12,35.29-76.82,0,0-89.68-89.69-108.25-108.26l-41.78,41.78-14.14-14.14,55.92-55.92,3.54,3.53c19.66,19.66,49.11,49.11,76.35,76.36l48.52,48.52-.04,2.12c-.66,39.85-14.83,73.34-40.98,96.85-23.21,20.87-54.24,32.37-87.37,32.37Z"/>
    <circle class="cls-1" cx="128.41" cy="182.62" r="24.02"/>
    <path class="cls-1" d="M391.25,244.27c-12.94,0-24.23-2.35-33.88-7.04-9.63-4.69-17.63-11.13-23.98-19.32-6.34-8.19-11.07-17.6-14.17-28.26-3.11-10.65-4.66-22-4.66-34.05s1.55-23.41,4.66-34.07c3.1-10.65,7.83-20.04,14.17-28.15,6.35-8.12,14.34-14.52,23.98-19.22,9.64-4.69,20.93-7.04,33.88-7.04s24.23,2.35,33.88,7.04c9.64,4.69,17.63,11.1,23.98,19.22,6.34,8.11,11.06,17.5,14.17,28.15,3.1,10.66,4.66,22.01,4.66,34.07s-1.56,23.4-4.66,34.05c-3.11,10.66-7.83,20.08-14.17,28.26-6.34,8.19-14.33,14.63-23.98,19.32-9.64,4.69-20.93,7.04-33.88,7.04ZM333.03,155.6c0,14.58,1.99,27.23,5.99,37.95,4,10.72,10.28,19,18.85,24.83,8.56,5.83,19.69,8.75,33.39,8.75s24.99-2.92,33.49-8.75c8.5-5.83,14.74-14.11,18.73-24.83,4-10.72,6-23.37,6-37.95s-2-27.21-6-37.87c-3.99-10.65-10.24-18.9-18.73-24.74-8.5-5.83-19.66-8.75-33.49-8.75s-24.83,2.92-33.39,8.75c-8.57,5.83-14.85,14.08-18.85,24.74-3.99,10.66-5.99,23.28-5.99,37.87Z"/>
    <path class="cls-1" d="M486.96,107.84h18.07l28.36,118.53h14.46l28.34-118.53h18.09l-31.77,133.19h-43.77l-31.77-133.19Z"/>
    <path class="cls-1" d="M613.3,174.25c0-9.39,1.77-18.21,5.32-26.45,3.56-8.25,8.44-15.51,14.66-21.79,6.21-6.28,13.38-11.19,21.5-14.74,8.12-3.56,16.81-5.34,26.08-5.34,12.42,0,23.39,2.67,32.91,7.99,9.52,5.33,16.97,13.32,22.36,23.98,5.39,10.66,8.09,23.98,8.09,39.96h-112.84c.52,9.38,2.77,17.76,6.76,25.12,4,7.36,9.61,13.16,16.84,17.41,7.22,4.25,15.85,6.37,25.88,6.37,13.94,0,24.31-2.75,31.1-8.27,6.79-5.52,11.2-13.74,13.23-24.65h19.03c-1.27,8.88-4.53,17.06-9.8,24.54-5.26,7.49-12.4,13.45-21.4,17.89-9.01,4.45-19.72,6.66-32.15,6.66-9.26,0-17.96-1.78-26.08-5.32-8.12-3.56-15.29-8.48-21.5-14.75-6.22-6.28-11.1-13.57-14.66-21.87-3.55-8.31-5.32-17.23-5.32-26.74ZM632.52,161.68h90.95c-1.77-10.15-4.69-18.11-8.75-23.88-4.06-5.77-8.97-9.82-14.74-12.17-5.77-2.35-12.15-3.53-19.12-3.53-8.89,0-16.7,1.71-23.42,5.14-6.72,3.42-12.17,8.08-16.36,13.98-4.19,5.9-7.04,12.72-8.56,20.45Z"/>
    <path class="cls-1" d="M763.23,241.03V107.84h18.07l-3.8,25.68h3.8c2.16-5.07,5.26-9.51,9.32-13.31,4.07-3.81,9.49-6.82,16.27-9.03,6.79-2.22,15.2-3.33,25.22-3.33v17.12c-17.88,0-30.79,3.84-38.73,11.52-7.93,7.67-11.89,19.75-11.89,36.24l-.19,68.32h-18.07Z"/>
    <path class="cls-1" d="M851.14,241.03V69.78h18.07v171.26h-18.07Z"/>
    <path class="cls-1" d="M888.24,202.98c0-14.34,5.74-25.16,17.21-32.45,11.48-7.29,28.64-12.52,51.48-15.69l26.08-3.62c0-10.65-2.86-18.17-8.57-22.54-5.71-4.38-13.31-6.57-22.83-6.57-6.34,0-12.27,1.02-17.79,3.04-5.52,2.03-9.97,5.45-13.33,10.27-3.36,4.82-5.03,11.48-5.03,19.98h-19.03c0-9.26,1.96-17.6,5.89-25.03,3.93-7.42,9.99-13.35,18.17-17.78,8.19-4.44,18.62-6.66,31.32-6.66s22.67,2.25,29.96,6.76c7.29,4.5,12.49,10.74,15.6,18.73,3.11,7.99,4.67,17.19,4.67,27.6v38.44c0,8.5.63,15.19,1.89,20.08,1.27,4.88,3.81,7.31,7.62,7.31h1.89v16.18h-1.89c-6.34,0-11.23-1.17-14.66-3.51-3.42-2.35-5.8-6.66-7.13-12.94-1.33-6.28-1.99-15.32-1.99-27.11h-3.82c-1.9,9.63-5.48,17.85-10.74,24.64-5.26,6.79-11.48,11.98-18.65,15.6-7.16,3.61-14.55,5.42-22.16,5.42s-14.79-1.36-21.51-4.08c-6.72-2.73-12.17-7.04-16.36-12.94-4.19-5.9-6.28-13.61-6.28-23.12ZM907.27,202.98c0,7.6,2.06,13.47,6.18,17.6,4.13,4.12,11.08,6.18,20.85,6.18,4.81,0,9.85-.76,15.11-2.28,5.27-1.52,10.32-4.37,15.14-8.56,4.82-4.19,8.91-10.19,12.26-17.99,3.36-7.8,5.49-17.91,6.37-30.35l-26.26,3.43c-10.53,1.39-19.06,3.14-25.59,5.23-6.54,2.09-11.55,4.47-15.03,7.13-3.48,2.67-5.86,5.65-7.13,8.95-1.27,3.3-1.91,6.85-1.91,10.66Z"/>
    <path class="cls-1" d="M1050.54,298.12h-18.07V107.84h18.07l-3.04,35.38h4c3.56-13.94,9.78-23.96,18.65-30.06,8.88-6.09,20.36-9.14,34.44-9.14,8.37,0,16.39,1.78,24.06,5.34,7.68,3.55,14.5,8.46,20.46,14.74,5.96,6.28,10.69,13.57,14.17,21.89,3.49,8.31,5.24,17.21,5.24,26.73s-1.75,18.22-5.24,26.46c-3.48,8.24-8.21,15.5-14.17,21.78-5.97,6.28-12.79,11.2-20.46,14.75-7.67,3.55-15.69,5.32-24.06,5.32-14.09,0-25.57-3.04-34.44-9.13-8.88-6.09-15.1-16.11-18.65-30.07h-4l3.04,39.2v57.09ZM1051.49,172.72c0,10.03,2.19,18.79,6.57,26.27,4.38,7.49,10.43,13.32,18.17,17.5,7.74,4.19,16.56,6.28,26.45,6.28,9.26,0,17.41-2.22,24.45-6.65,7.04-4.44,12.53-10.44,16.47-17.99,3.93-7.55,5.9-16.02,5.9-25.41s-1.97-18.07-5.9-25.68c-3.94-7.61-9.43-13.64-16.47-18.07-7.03-4.44-15.18-6.66-24.45-6.66-9.89,0-18.71,2.22-26.45,6.66-7.74,4.43-13.79,10.46-18.17,18.07-4.38,7.6-6.57,16.16-6.57,25.68Z"/>
    <path class="cls-1" d="M1205.61,298.12h-18.07V107.84h18.07l-3.04,35.38h4c3.56-13.94,9.78-23.96,18.65-30.06,8.88-6.09,20.36-9.14,34.44-9.14,8.37,0,16.39,1.78,24.06,5.34,7.68,3.55,14.5,8.46,20.46,14.74,5.96,6.28,10.69,13.57,14.17,21.89,3.49,8.31,5.24,17.21,5.24,26.73s-1.75,18.22-5.24,26.46c-3.48,8.24-8.21,15.5-14.17,21.78-5.97,6.28-12.79,11.2-20.46,14.75-7.67,3.55-15.69,5.32-24.06,5.32-14.09,0-25.57-3.04-34.44-9.13-8.88-6.09-15.1-16.11-18.65-30.07h-4l3.04,39.2v57.09ZM1206.56,172.72c0,10.03,2.19,18.79,6.57,26.27,4.38,7.49,10.43,13.32,18.17,17.5,7.74,4.19,16.56,6.28,26.45,6.28,9.26,0,17.41-2.22,24.45-6.65,7.04-4.44,12.53-10.44,16.47-17.99,3.93-7.55,5.9-16.02,5.9-25.41s-1.97-18.07-5.9-25.68c-3.94-7.61-9.43-13.64-16.47-18.07-7.03-4.44-15.18-6.66-24.45-6.66-9.89,0-18.71,2.22-26.45,6.66-7.74,4.43-13.79,10.46-18.17,18.07-4.38,7.6-6.57,16.16-6.57,25.68Z"/>
  </g>
</svg>