<svg width="818" height="178" viewBox="0 0 818 178" fill="none" xmlns="http://www.w3.org/2000/svg">
<path d="M30.4983 69C13.6561 69 0 82.2172 0 98.5184C0 114.82 12.0113 127.997 28.8569 127.997C34.828 127.997 40.6022 126.341 45.5677 123.481C46.0273 123.217 46.6078 123.538 46.6078 124.055V127.332C46.6078 127.7 46.9188 128 47.2989 128H60.3089C60.689 128 61 127.7 61 127.332V98.5217C61 82.2172 47.3439 69 30.4983 69ZM30.5017 112.286C22.6335 112.286 16.2581 106.112 16.2581 98.4983C16.2581 90.8851 22.637 84.7138 30.5017 84.7138C38.3665 84.7138 44.7453 90.8851 44.7453 98.4983C44.7453 106.112 38.3665 112.286 30.5017 112.286Z" fill="#1E1E1E"/>
<path d="M748.498 69C731.656 69 718 82.2172 718 98.5184C718 114.82 730.011 127.997 746.857 127.997C752.828 127.997 758.602 126.341 763.568 123.481C764.027 123.217 764.608 123.538 764.608 124.055V127.332C764.608 127.7 764.919 128 765.299 128H778.309C778.689 128 779 127.7 779 127.332V98.5217C779 82.2172 765.344 69 748.498 69ZM748.502 112.286C740.634 112.286 734.258 106.112 734.258 98.4983C734.258 90.8851 740.637 84.7138 748.502 84.7138C756.366 84.7138 762.745 90.8851 762.745 98.4983C762.745 106.112 756.366 112.286 748.502 112.286Z" fill="#1E1E1E"/>
<path d="M69.496 128V94.96C69.496 90.1813 70.6533 85.8507 72.968 81.968C75.2827 78.0853 78.568 74.9867 82.824 72.672C87.1547 70.3573 92.2693 69.2 98.168 69.2C104.141 69.2 109.219 70.3573 113.4 72.672C117.656 74.9867 120.904 78.0853 123.144 81.968C125.384 85.8507 126.504 90.1813 126.504 94.96V128H109.144V95.408C109.144 93.392 108.659 91.5627 107.688 89.92C106.717 88.2027 105.373 86.8587 103.656 85.888C102.013 84.8427 100.147 84.32 98.056 84.32C95.8907 84.32 93.9493 84.8427 92.232 85.888C90.5893 86.8587 89.2827 88.2027 88.312 89.92C87.3413 91.5627 86.856 93.392 86.856 95.408V128H69.496ZM154.952 150.736V128.336C150.771 127.291 147.187 125.611 144.2 123.296C141.213 120.907 138.936 118.032 137.368 114.672C135.8 111.237 135.016 107.541 135.016 103.584V70.544H152.376V103.024C152.376 105.04 152.861 106.907 153.832 108.624C154.803 110.341 156.109 111.723 157.752 112.768C159.469 113.739 161.373 114.224 163.464 114.224C165.629 114.224 167.533 113.739 169.176 112.768C170.893 111.723 172.237 110.341 173.208 108.624C174.179 106.907 174.664 105.04 174.664 103.024V70.544H192.024V103.584C192.024 107.541 191.24 111.2 189.672 114.56C188.179 117.92 185.939 120.795 182.952 123.184C180.04 125.573 176.493 127.253 172.312 128.224V150.736H154.952ZM200.536 128V46.24H217.896V74.352C220.136 72.56 222.6 71.2533 225.288 70.432C227.976 69.6107 230.664 69.2 233.352 69.2C238.579 69.2 242.984 70.32 246.568 72.56C250.227 74.8 252.952 77.8613 254.744 81.744C256.611 85.6267 257.544 90.032 257.544 94.96V128H240.184V95.632C240.184 93.4667 239.661 91.5627 238.616 89.92C237.645 88.2027 236.301 86.8587 234.584 85.888C232.941 84.8427 231.112 84.32 229.096 84.32C227.08 84.32 225.213 84.8053 223.496 85.776C221.779 86.7467 220.397 88.0533 219.352 89.696C218.381 91.3387 217.896 93.2053 217.896 95.296V128H200.536ZM294.504 129.344C288.605 129.344 283.304 128.037 278.6 125.424C273.896 122.811 270.163 119.227 267.4 114.672C264.712 110.117 263.368 105.003 263.368 99.328C263.368 93.5787 264.712 88.464 267.4 83.984C270.163 79.4293 273.896 75.8453 278.6 73.232C283.304 70.544 288.605 69.2 294.504 69.2C300.403 69.2 305.667 70.544 310.296 73.232C315 75.8453 318.696 79.4293 321.384 83.984C324.147 88.464 325.528 93.5787 325.528 99.328C325.528 105.003 324.147 110.117 321.384 114.672C318.696 119.227 315 122.811 310.296 125.424C305.592 128.037 300.328 129.344 294.504 129.344ZM294.504 114.224C297.267 114.224 299.656 113.552 301.672 112.208C303.688 110.864 305.256 109.072 306.376 106.832C307.496 104.592 308.056 102.053 308.056 99.216C308.056 96.4533 307.496 93.952 306.376 91.712C305.256 89.472 303.688 87.68 301.672 86.336C299.656 84.992 297.267 84.32 294.504 84.32C291.741 84.32 289.315 84.992 287.224 86.336C285.208 87.68 283.64 89.472 282.52 91.712C281.4 93.952 280.84 96.4533 280.84 99.216C280.84 102.053 281.4 104.592 282.52 106.832C283.64 109.072 285.208 110.864 287.224 112.208C289.315 113.552 291.741 114.224 294.504 114.224ZM353.645 129.344C349.688 129.344 345.992 128.56 342.557 126.992C339.197 125.424 336.472 123.035 334.381 119.824C332.365 116.613 331.357 112.581 331.357 107.728V70.544H348.717V109.968C348.717 110.864 348.941 111.685 349.389 112.432C349.837 113.179 350.435 113.776 351.181 114.224C351.928 114.672 352.749 114.896 353.645 114.896C354.541 114.896 355.363 114.672 356.109 114.224C356.856 113.776 357.453 113.179 357.901 112.432C358.349 111.685 358.573 110.864 358.573 109.968V90.816C358.573 86.1867 359.544 82.2667 361.485 79.056C363.427 75.8453 366.077 73.4187 369.437 71.776C372.872 70.0587 376.717 69.2 380.973 69.2C385.229 69.2 389.037 70.0587 392.397 71.776C395.757 73.4187 398.408 75.8453 400.349 79.056C402.291 82.2667 403.261 86.1867 403.261 90.816V109.968C403.261 110.864 403.485 111.685 403.933 112.432C404.381 113.179 404.979 113.776 405.725 114.224C406.547 114.672 407.405 114.896 408.301 114.896C409.197 114.896 410.019 114.672 410.765 114.224C411.512 113.776 412.109 113.179 412.557 112.432C413.005 111.685 413.229 110.864 413.229 109.968V70.544H430.589V107.728C430.589 112.581 429.544 116.613 427.453 119.824C425.437 123.035 422.712 125.424 419.277 126.992C415.917 128.56 412.259 129.344 408.301 129.344C404.344 129.344 400.648 128.56 397.213 126.992C393.853 125.424 391.128 123.035 389.037 119.824C386.947 116.613 385.901 112.581 385.901 107.728V88.688C385.901 87.7173 385.677 86.8587 385.229 86.112C384.781 85.3653 384.184 84.768 383.437 84.32C382.691 83.872 381.869 83.648 380.973 83.648C380.077 83.648 379.219 83.872 378.397 84.32C377.651 84.768 377.053 85.3653 376.605 86.112C376.157 86.8587 375.933 87.7173 375.933 88.688V107.728C375.933 112.581 374.888 116.613 372.797 119.824C370.781 123.035 368.056 125.424 364.621 126.992C361.261 128.56 357.603 129.344 353.645 129.344ZM464.257 128V94.064C464.257 89.36 465.339 85.1413 467.505 81.408C469.745 77.6 472.918 74.6133 477.025 72.448C481.131 70.2827 486.022 69.2 491.697 69.2C494.534 69.2 497.147 69.536 499.537 70.208C501.926 70.8053 504.091 71.664 506.033 72.784C508.049 73.8293 509.766 75.0987 511.185 76.592H511.409C512.902 75.0987 514.619 73.8293 516.561 72.784C518.577 71.664 520.779 70.8053 523.169 70.208C525.633 69.536 528.283 69.2 531.121 69.2C536.795 69.2 541.686 70.2827 545.793 72.448C549.899 74.6133 553.073 77.6 555.313 81.408C557.553 85.1413 558.673 89.36 558.673 94.064V128H541.201V94.624C541.201 92.7573 540.715 91.0773 539.745 89.584C538.849 88.016 537.617 86.7467 536.049 85.776C534.481 84.8053 532.689 84.32 530.673 84.32C528.657 84.32 526.827 84.8053 525.185 85.776C523.617 86.7467 522.385 88.016 521.489 89.584C520.593 91.0773 520.145 92.7573 520.145 94.624V128H502.785V94.624C502.785 92.7573 502.299 91.0773 501.329 89.584C500.433 88.016 499.163 86.7467 497.521 85.776C495.953 84.8053 494.161 84.32 492.145 84.32C490.129 84.32 488.299 84.8053 486.657 85.776C485.089 86.7467 483.857 88.016 482.961 89.584C482.065 91.0773 481.617 92.7573 481.617 94.624V128H464.257ZM597.09 128C590.594 128 584.882 126.805 579.954 124.416C575.026 121.952 571.18 118.592 568.418 114.336C565.73 110.005 564.386 105.003 564.386 99.328C564.386 93.056 565.692 87.68 568.306 83.2C570.919 78.72 574.391 75.2853 578.722 72.896C583.127 70.432 587.98 69.2 593.282 69.2C599.33 69.2 604.37 70.4693 608.402 73.008C612.508 75.5467 615.607 79.0187 617.698 83.424C619.788 87.7547 620.834 92.72 620.834 98.32C620.834 99.2907 620.759 100.448 620.61 101.792C620.535 103.061 620.423 104.069 620.274 104.816H582.642C583.09 106.757 583.948 108.4 585.218 109.744C586.487 111.088 588.092 112.096 590.034 112.768C591.975 113.365 594.14 113.664 596.53 113.664H614.114V128H597.09ZM582.194 93.952H604.034C603.884 92.7573 603.66 91.6 603.362 90.48C603.063 89.36 602.578 88.3893 601.906 87.568C601.308 86.672 600.599 85.9253 599.778 85.328C598.956 84.656 597.986 84.1333 596.866 83.76C595.82 83.3867 594.626 83.2 593.282 83.2C591.564 83.2 590.034 83.4987 588.69 84.096C587.346 84.6933 586.226 85.5147 585.33 86.56C584.434 87.5307 583.724 88.688 583.202 90.032C582.754 91.3013 582.418 92.608 582.194 93.952ZM654.58 129.344C649.802 129.344 645.471 128.597 641.588 127.104C637.78 125.611 634.57 123.483 631.956 120.72C629.343 117.883 627.327 114.56 625.908 110.752C624.49 106.944 623.78 102.8 623.78 98.32C623.78 92.496 624.938 87.4187 627.252 83.088C629.642 78.7573 632.89 75.36 636.996 72.896C641.178 70.432 645.956 69.2 651.332 69.2C653.647 69.2 655.812 69.4987 657.828 70.096C659.919 70.6933 661.786 71.5893 663.428 72.784C665.146 73.904 666.564 75.248 667.684 76.816H668.02V46.24H685.38V98.208C685.38 104.48 684.111 109.968 681.572 114.672C679.034 119.376 675.45 122.997 670.82 125.536C666.266 128.075 660.852 129.344 654.58 129.344ZM654.58 114.336C657.268 114.336 659.583 113.701 661.524 112.432C663.54 111.088 665.071 109.296 666.116 107.056C667.162 104.741 667.684 102.165 667.684 99.328C667.684 96.4907 667.162 93.952 666.116 91.712C665.071 89.472 663.54 87.7173 661.524 86.448C659.583 85.104 657.268 84.432 654.58 84.432C651.967 84.432 649.652 85.104 647.636 86.448C645.62 87.7173 644.09 89.472 643.044 91.712C641.999 93.952 641.476 96.4907 641.476 99.328C641.476 102.165 641.999 104.741 643.044 107.056C644.09 109.296 645.62 111.088 647.636 112.432C649.652 113.701 651.967 114.336 654.58 114.336ZM693.41 128V70.544H710.882V128H693.41ZM702.146 64.048C699.384 64.048 696.994 63.04 694.978 61.024C692.962 59.008 691.954 56.6187 691.954 53.856C691.954 51.0933 692.962 48.704 694.978 46.688C696.994 44.5973 699.384 43.552 702.146 43.552C704.909 43.552 707.298 44.5973 709.314 46.688C711.33 48.704 712.338 51.0933 712.338 53.856C712.338 56.6187 711.33 59.008 709.314 61.024C707.298 63.04 704.909 64.048 702.146 64.048ZM803.112 129.344C800.125 129.344 797.549 128.299 795.384 126.208C793.293 124.043 792.248 121.504 792.248 118.592C792.248 115.605 793.293 113.067 795.384 110.976C797.549 108.811 800.125 107.728 803.112 107.728C806.024 107.728 808.525 108.811 810.616 110.976C812.781 113.067 813.864 115.605 813.864 118.592C813.864 120.533 813.378 122.325 812.408 123.968C811.437 125.611 810.13 126.917 808.488 127.888C806.92 128.859 805.128 129.344 803.112 129.344Z" fill="#1E1E1E"/>
</svg>
